<mxfile host="app.diagrams.net" modified="2023-09-15T10:22:02.356Z" agent="Mozilla/5.0 (Macintosh; Intel Mac OS X 10_15_7) AppleWebKit/605.1.15 (KHTML, like Gecko) Version/17.0 Safari/605.1.15" etag="FU0m3NaSnuGNeSgA2iNP" version="21.7.5" type="google">
  <diagram name="Page-1" id="XjSZhAt7Uf_lo4FYAkTB">
    <mxGraphModel grid="1" page="1" gridSize="10" guides="1" tooltips="1" connect="1" arrows="1" fold="1" pageScale="1" pageWidth="827" pageHeight="1169" math="0" shadow="0">
      <root>
        <mxCell id="0" />
        <mxCell id="1" parent="0" />
        <mxCell id="Tq6jwH5o5QrQCe2Xp2UY-14" style="edgeStyle=orthogonalEdgeStyle;rounded=0;orthogonalLoop=1;jettySize=auto;html=1;exitX=0.5;exitY=1;exitDx=0;exitDy=0;exitPerimeter=0;entryX=0.5;entryY=0;entryDx=0;entryDy=0;entryPerimeter=0;" edge="1" parent="1" source="Tq6jwH5o5QrQCe2Xp2UY-11" target="Tq6jwH5o5QrQCe2Xp2UY-13">
          <mxGeometry relative="1" as="geometry">
            <mxPoint x="357" y="190" as="targetPoint" />
          </mxGeometry>
        </mxCell>
        <mxCell id="Tq6jwH5o5QrQCe2Xp2UY-11" value="generateWorld()&lt;br&gt;start" style="strokeWidth=2;html=1;shape=mxgraph.flowchart.start_1;whiteSpace=wrap;" vertex="1" parent="1">
          <mxGeometry x="307" y="90" width="100" height="60" as="geometry" />
        </mxCell>
        <mxCell id="Tq6jwH5o5QrQCe2Xp2UY-17" style="edgeStyle=orthogonalEdgeStyle;rounded=0;orthogonalLoop=1;jettySize=auto;html=1;exitX=0.5;exitY=1;exitDx=0;exitDy=0;exitPerimeter=0;" edge="1" parent="1" source="Tq6jwH5o5QrQCe2Xp2UY-13" target="Tq6jwH5o5QrQCe2Xp2UY-16">
          <mxGeometry relative="1" as="geometry" />
        </mxCell>
        <mxCell id="Tq6jwH5o5QrQCe2Xp2UY-32" value="True" style="edgeLabel;html=1;align=center;verticalAlign=middle;resizable=0;points=[];" connectable="0" vertex="1" parent="Tq6jwH5o5QrQCe2Xp2UY-17">
          <mxGeometry x="-0.6051" y="-3" relative="1" as="geometry">
            <mxPoint as="offset" />
          </mxGeometry>
        </mxCell>
        <mxCell id="Tq6jwH5o5QrQCe2Xp2UY-13" value="for y=0 &lt;br&gt;to&amp;nbsp;worldHeight" style="strokeWidth=2;html=1;shape=mxgraph.flowchart.decision;whiteSpace=wrap;" vertex="1" parent="1">
          <mxGeometry x="307" y="200" width="100" height="100" as="geometry" />
        </mxCell>
        <mxCell id="Tq6jwH5o5QrQCe2Xp2UY-22" style="edgeStyle=orthogonalEdgeStyle;rounded=0;orthogonalLoop=1;jettySize=auto;html=1;exitX=0;exitY=0.5;exitDx=0;exitDy=0;exitPerimeter=0;entryX=1;entryY=0.5;entryDx=0;entryDy=0;entryPerimeter=0;" edge="1" parent="1" source="Tq6jwH5o5QrQCe2Xp2UY-16" target="Tq6jwH5o5QrQCe2Xp2UY-13">
          <mxGeometry relative="1" as="geometry">
            <Array as="points">
              <mxPoint x="207" y="370" />
              <mxPoint x="207" y="1160" />
              <mxPoint x="597" y="1160" />
              <mxPoint x="597" y="250" />
            </Array>
          </mxGeometry>
        </mxCell>
        <mxCell id="Tq6jwH5o5QrQCe2Xp2UY-29" value="False" style="edgeLabel;html=1;align=center;verticalAlign=middle;resizable=0;points=[];" connectable="0" vertex="1" parent="Tq6jwH5o5QrQCe2Xp2UY-22">
          <mxGeometry x="-0.9511" relative="1" as="geometry">
            <mxPoint as="offset" />
          </mxGeometry>
        </mxCell>
        <mxCell id="Tq6jwH5o5QrQCe2Xp2UY-40" value="" style="edgeStyle=orthogonalEdgeStyle;rounded=0;orthogonalLoop=1;jettySize=auto;html=1;" edge="1" parent="1" source="Tq6jwH5o5QrQCe2Xp2UY-16" target="Tq6jwH5o5QrQCe2Xp2UY-39">
          <mxGeometry relative="1" as="geometry" />
        </mxCell>
        <mxCell id="Tq6jwH5o5QrQCe2Xp2UY-54" value="True" style="edgeLabel;html=1;align=center;verticalAlign=middle;resizable=0;points=[];" connectable="0" vertex="1" parent="Tq6jwH5o5QrQCe2Xp2UY-40">
          <mxGeometry x="-0.325" y="1" relative="1" as="geometry">
            <mxPoint as="offset" />
          </mxGeometry>
        </mxCell>
        <mxCell id="Tq6jwH5o5QrQCe2Xp2UY-16" value="for x=0&lt;br&gt;to worldWidth" style="strokeWidth=2;html=1;shape=mxgraph.flowchart.decision;whiteSpace=wrap;" vertex="1" parent="1">
          <mxGeometry x="307" y="320" width="100" height="100" as="geometry" />
        </mxCell>
        <mxCell id="Tq6jwH5o5QrQCe2Xp2UY-25" value="False" style="edgeStyle=orthogonalEdgeStyle;rounded=0;orthogonalLoop=1;jettySize=auto;html=1;exitX=0.5;exitY=1;exitDx=0;exitDy=0;exitPerimeter=0;entryX=0.5;entryY=0;entryDx=0;entryDy=0;entryPerimeter=0;" edge="1" parent="1" source="Tq6jwH5o5QrQCe2Xp2UY-18" target="Tq6jwH5o5QrQCe2Xp2UY-19">
          <mxGeometry relative="1" as="geometry" />
        </mxCell>
        <mxCell id="Tq6jwH5o5QrQCe2Xp2UY-46" value="" style="edgeStyle=orthogonalEdgeStyle;rounded=0;orthogonalLoop=1;jettySize=auto;html=1;" edge="1" parent="1" source="Tq6jwH5o5QrQCe2Xp2UY-18" target="Tq6jwH5o5QrQCe2Xp2UY-45">
          <mxGeometry relative="1" as="geometry" />
        </mxCell>
        <mxCell id="Tq6jwH5o5QrQCe2Xp2UY-50" value="True" style="edgeLabel;html=1;align=center;verticalAlign=middle;resizable=0;points=[];" connectable="0" vertex="1" parent="Tq6jwH5o5QrQCe2Xp2UY-46">
          <mxGeometry x="0.0522" y="1" relative="1" as="geometry">
            <mxPoint as="offset" />
          </mxGeometry>
        </mxCell>
        <mxCell id="Tq6jwH5o5QrQCe2Xp2UY-18" value="randValue &amp;lt; 20" style="strokeWidth=2;html=1;shape=mxgraph.flowchart.decision;whiteSpace=wrap;" vertex="1" parent="1">
          <mxGeometry x="307" y="580" width="100" height="100" as="geometry" />
        </mxCell>
        <mxCell id="Tq6jwH5o5QrQCe2Xp2UY-26" style="edgeStyle=orthogonalEdgeStyle;rounded=0;orthogonalLoop=1;jettySize=auto;html=1;exitX=0.5;exitY=1;exitDx=0;exitDy=0;exitPerimeter=0;entryX=0.5;entryY=0;entryDx=0;entryDy=0;entryPerimeter=0;" edge="1" parent="1" source="Tq6jwH5o5QrQCe2Xp2UY-19" target="Tq6jwH5o5QrQCe2Xp2UY-23">
          <mxGeometry relative="1" as="geometry" />
        </mxCell>
        <mxCell id="Tq6jwH5o5QrQCe2Xp2UY-33" value="False" style="edgeLabel;html=1;align=center;verticalAlign=middle;resizable=0;points=[];" connectable="0" vertex="1" parent="Tq6jwH5o5QrQCe2Xp2UY-26">
          <mxGeometry x="-0.3538" relative="1" as="geometry">
            <mxPoint as="offset" />
          </mxGeometry>
        </mxCell>
        <mxCell id="Tq6jwH5o5QrQCe2Xp2UY-47" value="" style="edgeStyle=orthogonalEdgeStyle;rounded=0;orthogonalLoop=1;jettySize=auto;html=1;" edge="1" parent="1" source="Tq6jwH5o5QrQCe2Xp2UY-19" target="Tq6jwH5o5QrQCe2Xp2UY-44">
          <mxGeometry relative="1" as="geometry" />
        </mxCell>
        <mxCell id="Tq6jwH5o5QrQCe2Xp2UY-51" value="True" style="edgeLabel;html=1;align=center;verticalAlign=middle;resizable=0;points=[];" connectable="0" vertex="1" parent="Tq6jwH5o5QrQCe2Xp2UY-47">
          <mxGeometry x="-0.5605" y="6" relative="1" as="geometry">
            <mxPoint as="offset" />
          </mxGeometry>
        </mxCell>
        <mxCell id="Tq6jwH5o5QrQCe2Xp2UY-19" value="randValue &amp;lt; 35" style="strokeWidth=2;html=1;shape=mxgraph.flowchart.decision;whiteSpace=wrap;" vertex="1" parent="1">
          <mxGeometry x="307" y="700" width="100" height="100" as="geometry" />
        </mxCell>
        <mxCell id="Tq6jwH5o5QrQCe2Xp2UY-28" style="edgeStyle=orthogonalEdgeStyle;rounded=0;orthogonalLoop=1;jettySize=auto;html=1;exitX=0.5;exitY=1;exitDx=0;exitDy=0;exitPerimeter=0;entryX=0.5;entryY=0;entryDx=0;entryDy=0;entryPerimeter=0;" edge="1" parent="1" source="Tq6jwH5o5QrQCe2Xp2UY-23" target="Tq6jwH5o5QrQCe2Xp2UY-24">
          <mxGeometry relative="1" as="geometry" />
        </mxCell>
        <mxCell id="Tq6jwH5o5QrQCe2Xp2UY-35" value="False" style="edgeLabel;html=1;align=center;verticalAlign=middle;resizable=0;points=[];" connectable="0" vertex="1" parent="Tq6jwH5o5QrQCe2Xp2UY-28">
          <mxGeometry x="0.1846" y="3" relative="1" as="geometry">
            <mxPoint as="offset" />
          </mxGeometry>
        </mxCell>
        <mxCell id="Tq6jwH5o5QrQCe2Xp2UY-48" value="" style="edgeStyle=orthogonalEdgeStyle;rounded=0;orthogonalLoop=1;jettySize=auto;html=1;" edge="1" parent="1" source="Tq6jwH5o5QrQCe2Xp2UY-23" target="Tq6jwH5o5QrQCe2Xp2UY-43">
          <mxGeometry relative="1" as="geometry" />
        </mxCell>
        <mxCell id="Tq6jwH5o5QrQCe2Xp2UY-52" value="True" style="edgeLabel;html=1;align=center;verticalAlign=middle;resizable=0;points=[];" connectable="0" vertex="1" parent="Tq6jwH5o5QrQCe2Xp2UY-48">
          <mxGeometry x="-0.0482" y="4" relative="1" as="geometry">
            <mxPoint as="offset" />
          </mxGeometry>
        </mxCell>
        <mxCell id="Tq6jwH5o5QrQCe2Xp2UY-23" value="randValue &amp;lt; 50" style="strokeWidth=2;html=1;shape=mxgraph.flowchart.decision;whiteSpace=wrap;" vertex="1" parent="1">
          <mxGeometry x="307" y="820" width="100" height="100" as="geometry" />
        </mxCell>
        <mxCell id="Tq6jwH5o5QrQCe2Xp2UY-37" style="edgeStyle=orthogonalEdgeStyle;rounded=0;orthogonalLoop=1;jettySize=auto;html=1;exitX=0.5;exitY=1;exitDx=0;exitDy=0;exitPerimeter=0;entryX=0.5;entryY=0;entryDx=0;entryDy=0;" edge="1" parent="1" source="Tq6jwH5o5QrQCe2Xp2UY-24" target="Tq6jwH5o5QrQCe2Xp2UY-36">
          <mxGeometry relative="1" as="geometry" />
        </mxCell>
        <mxCell id="Tq6jwH5o5QrQCe2Xp2UY-49" value="" style="edgeStyle=orthogonalEdgeStyle;rounded=0;orthogonalLoop=1;jettySize=auto;html=1;" edge="1" parent="1" source="Tq6jwH5o5QrQCe2Xp2UY-24" target="Tq6jwH5o5QrQCe2Xp2UY-42">
          <mxGeometry relative="1" as="geometry" />
        </mxCell>
        <mxCell id="Tq6jwH5o5QrQCe2Xp2UY-53" value="True" style="edgeLabel;html=1;align=center;verticalAlign=middle;resizable=0;points=[];" connectable="0" vertex="1" parent="Tq6jwH5o5QrQCe2Xp2UY-49">
          <mxGeometry x="0.1527" y="4" relative="1" as="geometry">
            <mxPoint as="offset" />
          </mxGeometry>
        </mxCell>
        <mxCell id="Tq6jwH5o5QrQCe2Xp2UY-24" value="randValue &amp;lt; 70" style="strokeWidth=2;html=1;shape=mxgraph.flowchart.decision;whiteSpace=wrap;" vertex="1" parent="1">
          <mxGeometry x="307" y="940" width="100" height="100" as="geometry" />
        </mxCell>
        <mxCell id="Tq6jwH5o5QrQCe2Xp2UY-36" value="world&lt;br&gt;coordinate x y =&lt;br&gt;AIR" style="shape=parallelogram;html=1;strokeWidth=2;perimeter=parallelogramPerimeter;whiteSpace=wrap;rounded=1;arcSize=12;size=0.23;" vertex="1" parent="1">
          <mxGeometry x="295.5" y="1070" width="123" height="60" as="geometry" />
        </mxCell>
        <mxCell id="Tq6jwH5o5QrQCe2Xp2UY-41" value="" style="edgeStyle=orthogonalEdgeStyle;rounded=0;orthogonalLoop=1;jettySize=auto;html=1;" edge="1" parent="1" source="Tq6jwH5o5QrQCe2Xp2UY-39" target="Tq6jwH5o5QrQCe2Xp2UY-18">
          <mxGeometry relative="1" as="geometry" />
        </mxCell>
        <mxCell id="Tq6jwH5o5QrQCe2Xp2UY-39" value="Generate random number randValue 0-100" style="rounded=1;whiteSpace=wrap;html=1;absoluteArcSize=1;arcSize=14;strokeWidth=2;" vertex="1" parent="1">
          <mxGeometry x="307" y="460" width="100" height="100" as="geometry" />
        </mxCell>
        <mxCell id="Tq6jwH5o5QrQCe2Xp2UY-42" value="world&lt;br&gt;coordinate x y =&lt;br&gt;IRON_ORE" style="shape=parallelogram;html=1;strokeWidth=2;perimeter=parallelogramPerimeter;whiteSpace=wrap;rounded=1;arcSize=12;size=0.23;" vertex="1" parent="1">
          <mxGeometry x="440" y="960" width="123" height="60" as="geometry" />
        </mxCell>
        <mxCell id="Tq6jwH5o5QrQCe2Xp2UY-43" value="world&lt;br&gt;coordinate x y =&lt;br&gt;STONE" style="shape=parallelogram;html=1;strokeWidth=2;perimeter=parallelogramPerimeter;whiteSpace=wrap;rounded=1;arcSize=12;size=0.23;" vertex="1" parent="1">
          <mxGeometry x="440" y="840" width="123" height="60" as="geometry" />
        </mxCell>
        <mxCell id="Tq6jwH5o5QrQCe2Xp2UY-44" value="world&lt;br&gt;coordinate x y =&lt;br&gt;LEAVES" style="shape=parallelogram;html=1;strokeWidth=2;perimeter=parallelogramPerimeter;whiteSpace=wrap;rounded=1;arcSize=12;size=0.23;" vertex="1" parent="1">
          <mxGeometry x="440" y="720" width="123" height="60" as="geometry" />
        </mxCell>
        <mxCell id="Tq6jwH5o5QrQCe2Xp2UY-45" value="world&lt;br&gt;coordinate x y =&lt;br&gt;WOOD" style="shape=parallelogram;html=1;strokeWidth=2;perimeter=parallelogramPerimeter;whiteSpace=wrap;rounded=1;arcSize=12;size=0.23;" vertex="1" parent="1">
          <mxGeometry x="440" y="600" width="123" height="60" as="geometry" />
        </mxCell>
      </root>
    </mxGraphModel>
  </diagram>
</mxfile>
